<mxfile host="f662ac4f-2053-4734-9e1c-23d8f7d35e5d" modified="2020-09-26T00:19:35.796Z" agent="5.0 (Windows NT 6.1; Win64; x64) AppleWebKit/537.36 (KHTML, like Gecko) Code/1.47.3 Chrome/78.0.3904.130 Electron/7.3.2 Safari/537.36" etag="smbM1OaKDfPNf_0jwQ1b" version="13.1.3" pages="3">
    <diagram id="70TjUKxo3Jv_3xfZJJ2d" name="overview">
        <mxGraphModel dx="554" dy="480" grid="1" gridSize="10" guides="1" tooltips="1" connect="1" arrows="1" fold="1" page="1" pageScale="1" pageWidth="827" pageHeight="1169" math="0" shadow="0">
            <root>
                <mxCell id="yHRTtP9W4g_wSQJaehRI-0"/>
                <mxCell id="yHRTtP9W4g_wSQJaehRI-1" parent="yHRTtP9W4g_wSQJaehRI-0"/>
                <mxCell id="yHRTtP9W4g_wSQJaehRI-2" value="&lt;table cellpadding=&quot;4&quot; cellspacing=&quot;0&quot; border=&quot;1&quot; style=&quot;font-size: 1em ; width: 100% ; height: 100%&quot;&gt;&lt;tbody&gt;&lt;tr&gt;&lt;th&gt;format&lt;/th&gt;&lt;th&gt;processing&lt;/th&gt;&lt;/tr&gt;&lt;tr&gt;&lt;td&gt;json&lt;/td&gt;&lt;td&gt;&lt;h3&gt;javascript&lt;/h3&gt;&lt;font face=&quot;Courier New&quot;&gt;JSON.parse()&lt;br&gt;JSON.stringify()&lt;/font&gt;&lt;/td&gt;&lt;/tr&gt;&lt;tr&gt;&lt;td&gt;yaml&lt;/td&gt;&lt;td&gt;&lt;br&gt;&lt;/td&gt;&lt;/tr&gt;&lt;/tbody&gt;&lt;/table&gt; " style="verticalAlign=top;align=left;overflow=fill;fontSize=12;fontFamily=Helvetica;html=1" parent="yHRTtP9W4g_wSQJaehRI-1" vertex="1">
                    <mxGeometry x="40" y="40" width="340" height="170" as="geometry"/>
                </mxCell>
            </root>
        </mxGraphModel>
    </diagram>
    <diagram id="6hGFLwfOUW9BJ-s0fimq" name="json">
        <mxGraphModel dx="554" dy="480" grid="1" gridSize="10" guides="1" tooltips="1" connect="1" arrows="1" fold="1" page="1" pageScale="1" pageWidth="827" pageHeight="1169" math="0" shadow="0">
            <root>
                <mxCell id="0"/>
                <mxCell id="1" parent="0"/>
                <UserObject label="&lt;table cellpadding=&quot;4&quot; cellspacing=&quot;0&quot; border=&quot;1&quot; style=&quot;font-size: 1em ; width: 100% ; height: 100%&quot;&gt;&lt;tbody&gt;&lt;tr&gt;&lt;th&gt;types&lt;/th&gt;&lt;th&gt;contents&lt;/th&gt;&lt;/tr&gt;&lt;tr&gt;&lt;td&gt;basic&lt;/td&gt;&lt;td&gt;&lt;ol&gt;&lt;li&gt;&lt;font face=&quot;Courier New&quot;&gt;.json&lt;/font&gt; - file extension&lt;/li&gt;&lt;li&gt;&lt;font face=&quot;Courier New&quot;&gt;application/json&lt;/font&gt;&amp;nbsp;- MIME type&lt;br&gt;&lt;/li&gt;&lt;/ol&gt;&lt;/td&gt;&lt;/tr&gt;&lt;tr&gt;&lt;td&gt;separators&lt;/td&gt;&lt;td&gt;&lt;ol&gt;&lt;li&gt;&lt;font face=&quot;Courier New&quot;&gt;: - &lt;/font&gt;key:value&lt;/li&gt;&lt;li&gt;&lt;font face=&quot;Courier New&quot;&gt;, - &lt;/font&gt;key:value pairs&lt;/li&gt;&lt;li&gt;&lt;font face=&quot;Courier New&quot;&gt;{} - &lt;/font&gt;objects&lt;/li&gt;&lt;li&gt;&lt;font face=&quot;Courier New&quot;&gt;[] - &lt;/font&gt;arrays&lt;/li&gt;&lt;/ol&gt;&lt;/td&gt;&lt;/tr&gt;&lt;tr&gt;&lt;td&gt;data types&lt;/td&gt;&lt;td&gt;&lt;h3&gt;keys:&lt;/h3&gt;&lt;div&gt;&lt;ol&gt;&lt;li&gt;string type&lt;/li&gt;&lt;/ol&gt;&lt;/div&gt;&lt;h3&gt;values:&lt;/h3&gt;&lt;ol&gt;&lt;li&gt;string: &lt;font face=&quot;Courier New&quot;&gt;&quot;purple&quot;&lt;/font&gt; - wrapped by double quotes&lt;/li&gt;&lt;li&gt;number: &lt;font face=&quot;Courier New&quot;&gt;100, -10.2&lt;/font&gt;&lt;/li&gt;&lt;li&gt;boolean: &lt;font face=&quot;Courier New&quot;&gt;[true, false]&lt;/font&gt;&lt;/li&gt;&lt;li&gt;null: &lt;font face=&quot;Courier New&quot;&gt;&quot;age&quot;: null&lt;/font&gt;&lt;/li&gt;&lt;li&gt;object: &lt;font face=&quot;Courier New&quot;&gt;{..., ...}&lt;/font&gt;&lt;/li&gt;&lt;li&gt;array: &lt;font face=&quot;Courier New&quot;&gt;[..., ...]&lt;/font&gt;&lt;/li&gt;&lt;/ol&gt;&lt;/td&gt;&lt;/tr&gt;&lt;tr&gt;&lt;td&gt;access value&lt;/td&gt;&lt;td&gt;&lt;h3&gt;object:&lt;/h3&gt;&lt;ol&gt;&lt;li&gt;using &lt;font face=&quot;Courier New&quot;&gt;.&amp;nbsp;&lt;/font&gt;or&amp;nbsp;&amp;nbsp;&lt;font face=&quot;Courier New&quot;&gt;[] &lt;/font&gt;to get value: &lt;font face=&quot;Courier New&quot;&gt;auther.name, auther[&quot;name&quot;]&lt;/font&gt;&lt;/li&gt;&lt;li&gt;using &lt;font face=&quot;Courier New&quot;&gt;=&lt;/font&gt; to update values:&lt;font face=&quot;Courier New&quot;&gt; auther.name = &quot;othername&quot;&lt;/font&gt;&lt;/li&gt;&lt;li&gt;using &lt;font face=&quot;Courier New&quot;&gt;delete&lt;/font&gt;&amp;nbsp;to delete properties: &lt;font face=&quot;Courier New&quot;&gt;delete auther.name&lt;/font&gt;&lt;/li&gt;&lt;/ol&gt;&lt;h3&gt;array:&lt;/h3&gt;&lt;div&gt;&lt;ol&gt;&lt;li&gt;using &lt;font face=&quot;Courier New&quot;&gt;[] &lt;/font&gt;to get value:&lt;font face=&quot;Courier New&quot;&gt; auther.books[1]&lt;/font&gt;&lt;/li&gt;&lt;li&gt;&lt;font face=&quot;Courier New&quot;&gt;using&lt;/font&gt;&amp;nbsp;&lt;font face=&quot;Courier New&quot; style=&quot;font-family: &amp;#34;courier new&amp;#34;&quot;&gt;=&lt;/font&gt;&lt;span style=&quot;font-family: &amp;#34;helvetica&amp;#34;&quot;&gt;&amp;nbsp;to update&amp;nbsp;&lt;/span&gt;&lt;font face=&quot;Courier New&quot;&gt;values: auther.books[1] = &quot;hl&quot;&lt;/font&gt;&lt;/li&gt;&lt;li&gt;using&amp;nbsp;&lt;font face=&quot;Courier New&quot;&gt;delete&lt;/font&gt;&amp;nbsp;to delete items:&amp;nbsp;&lt;font face=&quot;Courier New&quot;&gt;delete auther.books[1]&lt;/font&gt;&lt;/li&gt;&lt;/ol&gt;&lt;/div&gt;&lt;/td&gt;&lt;/tr&gt;&lt;tr&gt;&lt;td&gt;&lt;a href=&quot;http://json-schema.org&quot;&gt;schema&lt;/a&gt;&lt;/td&gt;&lt;td&gt;&lt;h3&gt;&lt;font face=&quot;Courier New&quot;&gt;schema:&lt;/font&gt;&lt;/h3&gt;&lt;font face=&quot;Courier New&quot;&gt;{ &lt;br&gt;&amp;nbsp; &amp;nbsp; &quot;$schema&quot;: &quot;http://json-schema.org/draft-04/schema#&quot;, &lt;br&gt;&amp;nbsp; &amp;nbsp; &quot;title&quot;: &quot;Person&quot;, &lt;br&gt;&amp;nbsp; &amp;nbsp; &quot;description&quot;: &quot;A person&quot;, &lt;br&gt;&amp;nbsp; &amp;nbsp; &quot;type&quot;: &quot;object&quot;,&lt;br&gt;&amp;nbsp; &amp;nbsp; &quot;properties&quot;: { &lt;br&gt;&amp;nbsp; &amp;nbsp; &amp;nbsp; &amp;nbsp; &quot;name&quot;: { &lt;br&gt;&amp;nbsp; &amp;nbsp; &amp;nbsp; &amp;nbsp; &amp;nbsp; &amp;nbsp; &quot;description&quot;: &quot;A person's name&quot;, &lt;br&gt;&amp;nbsp; &amp;nbsp; &amp;nbsp; &amp;nbsp; &amp;nbsp; &amp;nbsp; &quot;type&quot;: &quot;string&quot; &lt;br&gt;&amp;nbsp; &amp;nbsp; &amp;nbsp; &amp;nbsp; &amp;nbsp;},&lt;br&gt;&amp;nbsp; &amp;nbsp; &amp;nbsp; &amp;nbsp; &amp;nbsp;&quot;age&quot;: {&lt;br&gt;&amp;nbsp; &amp;nbsp; &amp;nbsp; &amp;nbsp; &amp;nbsp; &amp;nbsp; &quot;description&quot;: &quot;A person's age&quot;,&lt;br&gt;&amp;nbsp; &amp;nbsp; &amp;nbsp; &amp;nbsp; &amp;nbsp; &amp;nbsp; &quot;type&quot;: &quot;number&quot;, &lt;br&gt;&amp;nbsp; &amp;nbsp; &amp;nbsp; &amp;nbsp; &amp;nbsp; &amp;nbsp; &quot;minimum&quot;: 18,&lt;br&gt;&amp;nbsp; &amp;nbsp; &amp;nbsp; &amp;nbsp; &amp;nbsp; &amp;nbsp; &quot;maximum&quot;: 64&lt;br&gt;&amp;nbsp; &amp;nbsp; &amp;nbsp; &amp;nbsp; &amp;nbsp; &amp;nbsp; } &lt;br&gt;&amp;nbsp; &amp;nbsp; },&lt;br&gt;&amp;nbsp; &amp;nbsp; &quot;required&quot;: [&quot;name&quot;, &quot;age&quot;]&lt;br&gt;}&lt;br&gt;&lt;/font&gt;&lt;br&gt;&lt;h3&gt;object:&lt;/h3&gt;&lt;div&gt;&lt;font face=&quot;Courier New&quot;&gt;{&lt;/font&gt;&lt;/div&gt;&lt;div&gt;&lt;font face=&quot;Courier New&quot;&gt;&amp;nbsp; &amp;nbsp; &quot;name&quot;: &quot;John Doe&quot;,&lt;/font&gt;&lt;/div&gt;&lt;div&gt;&lt;font face=&quot;Courier New&quot;&gt;&amp;nbsp; &amp;nbsp; &quot;age&quot;: 35&lt;/font&gt;&lt;/div&gt;&lt;div&gt;&lt;font face=&quot;Courier New&quot;&gt;}&lt;/font&gt;&lt;/div&gt;&lt;/td&gt;&lt;/tr&gt;&lt;/tbody&gt;&lt;/table&gt; " id="ZdUqw7-_avne0JCoBrwP-1">
                    <mxCell style="verticalAlign=top;align=left;overflow=fill;fontSize=12;fontFamily=Helvetica;html=1" parent="1" vertex="1">
                        <mxGeometry x="40" y="40" width="630" height="1080" as="geometry"/>
                    </mxCell>
                </UserObject>
            </root>
        </mxGraphModel>
    </diagram>
    <diagram id="y4TGKmTkcTddHkpaHD1i" name="yaml">
        <mxGraphModel dx="554" dy="480" grid="1" gridSize="10" guides="1" tooltips="1" connect="1" arrows="1" fold="1" page="1" pageScale="1" pageWidth="827" pageHeight="1169" math="0" shadow="0">
            <root>
                <mxCell id="6_pDzlnaH84xZLjrLRsx-0"/>
                <mxCell id="6_pDzlnaH84xZLjrLRsx-1" parent="6_pDzlnaH84xZLjrLRsx-0"/>
                <mxCell id="hIlppm9JOt-W47DFi0uU-0" value="&lt;table cellpadding=&quot;4&quot; cellspacing=&quot;0&quot; border=&quot;1&quot; style=&quot;font-size: 1em ; width: 100% ; height: 100%&quot;&gt;&lt;tbody&gt;&lt;tr&gt;&lt;th&gt;types&lt;/th&gt;&lt;th&gt;contents&lt;/th&gt;&lt;/tr&gt;&lt;tr&gt;&lt;td&gt;basic&lt;/td&gt;&lt;td&gt;&lt;ol&gt;&lt;li&gt;all yaml files can optionally begin with &lt;font face=&quot;Courier New&quot;&gt;---&lt;/font&gt; and end with &lt;font face=&quot;Courier New&quot;&gt;... &lt;/font&gt;which&amp;nbsp;indicates the start and end of the file&lt;/li&gt;&lt;li&gt;&lt;font face=&quot;Courier New&quot;&gt;#&lt;/font&gt;&amp;nbsp;for comments&lt;/li&gt;&lt;/ol&gt;&lt;/td&gt;&lt;/tr&gt;&lt;tr&gt;&lt;td&gt;data types&lt;/td&gt;&lt;td&gt;&lt;ol&gt;&lt;li&gt;numeric: [&lt;font face=&quot;Courier New&quot;&gt;1 1.1]&lt;/font&gt;&lt;/li&gt;&lt;li&gt;boolean:&amp;nbsp;&lt;font face=&quot;Courier New&quot;&gt;[yes, no, true, false, True, False, TRUE, FALSE]&lt;/font&gt;&lt;/li&gt;&lt;li&gt;string: &lt;font face=&quot;Courier New&quot;&gt;&quot;hello&quot; - &lt;/font&gt;needs single or double quotes when needed, see &lt;b&gt;notes&lt;/b&gt;&lt;/li&gt;&lt;li&gt;&lt;span style=&quot;font-size: 1em&quot;&gt;list&lt;/span&gt;&lt;br&gt;&lt;/li&gt;&lt;li&gt;dictionray&lt;/li&gt;&lt;/ol&gt;&lt;/td&gt;&lt;/tr&gt;&lt;tr&gt;&lt;td&gt;list&lt;/td&gt;&lt;td&gt;&lt;ol&gt;&lt;li&gt;list members begin at the same indentation level startng with a dash and a space &quot;&lt;font face=&quot;Courier New&quot;&gt;- &quot;&lt;/font&gt;&lt;/li&gt;&lt;/ol&gt;&lt;/td&gt;&lt;/tr&gt;&lt;tr&gt;&lt;td&gt;dictionary&lt;/td&gt;&lt;td&gt;&lt;ol&gt;&lt;li&gt;&lt;font face=&quot;Courier New&quot;&gt;key: value&lt;/font&gt;,&amp;nbsp;colon must be followed by a space&lt;/li&gt;&lt;li&gt;&lt;font face=&quot;Courier New&quot;&gt;value&lt;/font&gt; can span multiple lines using &lt;font face=&quot;Courier New&quot;&gt;|&lt;/font&gt; or &lt;font face=&quot;Courier New&quot;&gt;&amp;gt;&lt;/font&gt;&lt;/li&gt;&lt;li&gt;&lt;font face=&quot;Courier New&quot;&gt;|&lt;/font&gt; will include the new lines and any trailing spaces&lt;/li&gt;&lt;li&gt;&lt;font face=&quot;Courier New&quot;&gt;&amp;gt;&lt;/font&gt; will fold new lines to spaces making long line to read and edit easier&lt;/li&gt;&lt;li&gt;both &lt;font face=&quot;Courier New&quot;&gt;|&lt;/font&gt; and &lt;font face=&quot;Courier New&quot;&gt;&amp;gt;&lt;/font&gt; will ignore the indentation&lt;/li&gt;&lt;/ol&gt;&lt;/td&gt;&lt;/tr&gt;&lt;tr&gt;&lt;td&gt;notes&lt;/td&gt;&lt;td&gt;&lt;ol&gt;&lt;li&gt;&lt;font face=&quot;Courier New&quot;&gt;&quot;: &quot; &lt;/font&gt;indicates a mapping;&amp;nbsp;&lt;font face=&quot;Courier New&quot;&gt;&quot;: {&quot;&lt;/font&gt; indicates a dictionry; &lt;font face=&quot;Courier New&quot;&gt;&quot; #&quot;&lt;/font&gt; indicates a comment&lt;/li&gt;&lt;li&gt;when &lt;font face=&quot;Courier New&quot;&gt;&quot;: &quot;&lt;/font&gt;&amp;nbsp;,&amp;nbsp;&lt;font face=&quot;Courier New&quot;&gt;&quot;: {&quot;, &quot; #&quot;&lt;/font&gt; appear&amp;nbsp;in the mid of value, use single or double quotes to quote the entire value, not part of it&lt;/li&gt;&lt;li&gt;double quotes can use escapes&lt;/li&gt;&lt;/ol&gt;&lt;/td&gt;&lt;/tr&gt;&lt;tr&gt;&lt;td&gt;example&lt;/td&gt;&lt;td&gt;&lt;font face=&quot;Courier New&quot;&gt;# Employee records&lt;br&gt;- martin: &lt;br&gt;&amp;nbsp; &amp;nbsp; name: Martin D'vloper&lt;br&gt;&amp;nbsp; &amp;nbsp; job: Developer&lt;br&gt;&amp;nbsp; &amp;nbsp; skills:&lt;br&gt;&amp;nbsp; &amp;nbsp; &amp;nbsp; - python&lt;br&gt;&amp;nbsp; &amp;nbsp; &amp;nbsp; - perl&lt;br&gt;&amp;nbsp; &amp;nbsp; &amp;nbsp; - pascal&lt;br&gt;- tabitha:&lt;br&gt;&amp;nbsp; &amp;nbsp; name: Tabitha Bitumen&lt;br&gt;&amp;nbsp; &amp;nbsp; job: Developer&lt;br&gt;&amp;nbsp; &amp;nbsp; skills:&lt;br&gt;&amp;nbsp; &amp;nbsp; &amp;nbsp; - lisp&lt;br&gt;&amp;nbsp; &amp;nbsp; &amp;nbsp; - fortran&lt;br&gt;&amp;nbsp; &amp;nbsp; &amp;nbsp; - erlang&lt;br&gt;&lt;br&gt;--- &lt;br&gt;# An employee record&lt;br&gt;name: Martin D'vloper&lt;br&gt;job: Developer&lt;br&gt;skill: Elite&lt;br&gt;employed: True&lt;br&gt;foods:&lt;br&gt;&amp;nbsp; - Apple&lt;br&gt;&amp;nbsp; - Orange&lt;br&gt;&amp;nbsp; - Strawberry&lt;br&gt;&amp;nbsp; - Mango&lt;br&gt;languages:&lt;br&gt;&amp;nbsp; perl: Elite&lt;br&gt;&amp;nbsp; python: Elite&lt;br&gt;&amp;nbsp; pascal: Lame&lt;br&gt;education: |&lt;br&gt;&amp;nbsp; 4 GCSEs&lt;br&gt;&amp;nbsp; 3 A-Levels&lt;br&gt;&amp;nbsp; BSc in the Internet of Things&lt;br&gt;...&lt;/font&gt;&lt;/td&gt;&lt;/tr&gt;&lt;/tbody&gt;&lt;/table&gt; " style="verticalAlign=top;align=left;overflow=fill;fontSize=12;fontFamily=Helvetica;html=1" parent="6_pDzlnaH84xZLjrLRsx-1" vertex="1">
                    <mxGeometry x="40" y="20" width="770" height="1000" as="geometry"/>
                </mxCell>
            </root>
        </mxGraphModel>
    </diagram>
</mxfile>